<?xml version="1.0" encoding="utf-8" ?><svg xmlns="http://www.w3.org/2000/svg" width="1024" height="1024"><path fill="#19191f" d="M0 0h1024v1024H0z"/><defs><linearGradient id="a" x1="0%" x2="0%" y1="0%" y2="100%"><stop offset="50%" style="stop-color:#98c;stop-opacity:1"/><stop offset="50%" style="stop-color:#c2b5eb;stop-opacity:1"/></linearGradient></defs><path fill="url(#a)" d="M505 115a397 397 0 1 1 14 794 397 397 0 0 1-14-794"/><path fill="#19191f" d="m821 289 19 30-22 22-47 47-123 123 44 44 100 101q23 23 47 48l-18 29-27-26-38-39-143-144v206l-32-31-69-71-101 103V524l-16 15-28 29-75 75-57 58-32 32c-5-7-15-22-18-30l124-126 67-66-191-192c4-9 13-21 18-30l171 173 37 37V291l38 39 62 63c11-9 23-23 33-33l69-69v208l26-26 44-44z"/><path fill="#98c" d="m431 357 9 8 19 20 53 53 80-81 1 57-81 82-19-19-32-32-30-31z"/><path fill="#c2b5eb" d="m512 527 14 14 67 68-1 58-30-31-50-52-12 13-69 69v-56l28-28z"/><path fill="#19191f" d="m653 623 17 17 26 27 65 66 33 33-15 16a382 382 0 0 1-493 35c-24-18-36-30-57-51l15-15 26-27 100-101v208q27-25 52-53l90-90 26 27 44 45 43 44 28 28V623M506 132a374 374 0 0 1 241 82q26 20 48 44-44 46-89 90l-35 36-18 18V191l-55 56-82 83-4 4-49-49-93-95v209l-54-55-86-87 2-2q112-117 274-123m342 203 5 9q14 29 23 57c29 96 19 199-28 287l-66-66-70-71-40-40zm-672-1 60 61 115 116-15 15-18 19-76 77-67 66a378 378 0 0 1 1-353"/></svg>