<svg xmlns="http://www.w3.org/2000/svg" viewBox="0 0 1024 1024">
  <path fill="#666084" d="M929 514q6 0 9 3c3 8-6 14-11 17q-19 13-34 29a423 423 0 0 0-48 58q-16 23-29 47c-4 7-13 24-20 28-24 10-32-62-53-23q-13 25-24 49l-28 60q-10 23-22 45-8 15-21 25c-14 10-29 1-38-12q-21-31-36-67l-36-75-25-48-15 31-30 58-39 78-22 44q-4 4-8 5c-10-1-15-14-21-20q-7-7-15-13c-18-17-24-39-33-62a213 213 0 0 0-49-73c-4-4-11-11-16-10-15 2-23 35-41 23l-8-7q-14-24-27-48a655 655 0 0 0-78-103l-21-20q-3-3-2-8l3-4c6-4 17 2 23 5a324 324 0 0 1 103 74c8 10 22 31 34 34q6 1 11-3c17-10 18-40 22-58 2-6 4-15 10-19h9c33 10 60 98 72 129l17 37 15-30 32-62 24-48c10-20 29-67 58-59 9 2 19 14 24 21q19 32 34 66l43 86 13 27c24-59 43-129 90-174 14-13 40-30 61-31q4 0 7 3 2 4 2 9l-5 18q-5 16-6 34-1 5 2 9c4 4 14-6 17-9a300 300 0 0 1 126-66" style="fill:#666084;stroke:none;color:#fbfbfe;stroke-width:1px;stroke-linecap:butt;stroke-linejoin:miter;opacity:1;font-family:&quot;Anthropic Sans&quot;,-apple-system,BlinkMacSystemFont,&quot;Segoe UI&quot;,sans-serif;font-size:16px;font-weight:400;text-anchor:start;dominant-baseline:auto"/>
  <path fill="#9387c4" d="M628 151h1c6 2 11 17 15 23 8 12 20 19 28 31q7 12 10 26l13 31c8 16 37 60 53 65 15 5 21-16 33-22q4-2 9-1 4 2 7 6 6 7 9 16l13 23c20 36 40 64 67 95l22 22c6 6 20 17 24 24v6l-4 3c-9 4-23-5-31-9a373 373 0 0 1-103-75c-8-9-18-25-29-29q-6-3-12 0c-12 5-20 29-22 41q-2 15-7 29-3 7-9 9-6 3-11-1c-33-17-62-115-74-150l-16 31-29 56-23 43c-8 15-21 41-36 50-30 17-52-30-64-50l-18-34-48-87-9 23c-17 47-41 101-80 133-16 13-35 26-56 24q-9-2-8-12l9-40c3-10 4-35-12-20q-50 48-117 67c-7 1-21 6-27 4-24-5 8-20 12-23q13-8 25-18a372 372 0 0 0 79-87l18-30c11-21 17-39 36-8 4 7 15 29 25 16q13-19 24-41l33-69 6-12 14-28c8-13 23-32 39-18q11 11 17 25l18 35 36 69c10 18 22 42 34 59l10-19 22-41 34-66 33-73c4-9 7-18 17-22" style="fill:#9387c4;stroke:none;color:#fbfbfe;stroke-width:1px;stroke-linecap:butt;stroke-linejoin:miter;opacity:1;font-family:&quot;Anthropic Sans&quot;,-apple-system,BlinkMacSystemFont,&quot;Segoe UI&quot;,sans-serif;font-size:16px;font-weight:400;text-anchor:start;dominant-baseline:auto"/>
</svg>