<svg xmlns="http://www.w3.org/2000/svg" width="100%" viewBox="0 0 1024 1024">
  <!-- Waveform paths -->
  <path fill="#666084" d="M929.037 513.689c2.793.143 7.849.837 9.096 3.685 3.124 7.136-6.216 13.845-11.106 16.934-12.565 7.937-23.649 18.42-34.04 28.899a422.7 422.7 0 0 0-48.144 57.415c-10.747 15.23-19.386 31.373-28.917 47.327-4.178 6.994-12.501 24.293-19.899 27.569-23.936 10.598-32.404-61.733-53.429-22.254-8.616 16.179-16.145 32.452-23.806 48.99l-28.149 60.114c-6.672 14.62-13.757 30.691-21.819 44.497-5.91 9.597-11.567 19.096-21.042 25.371-14.049 9.306-28.941.531-37.771-11.796-14.574-20.345-24.591-44.795-35.588-67.407l-36.822-74.708c-7.946-15.942-15.739-32.177-24.249-47.826-4.188 9.215-10.876 20.984-15.686 30.212l-29.964 58.23a5778 5778 0 0 0-38.622 77.734c-6.377 13.142-14.725 31.692-22.187 44.684-1.829 1.923-5.594 4.441-8.379 4.202-9.364-.805-14.155-13.353-20.272-19.366-4.678-4.77-9.813-9.214-14.827-13.653-18.48-16.358-24.769-38.993-33.422-61.062a212.5 212.5 0 0 0-49.088-73.661c-3.498-3.441-11.018-10.979-16.057-10.305-15.248 2.039-22.49 35.174-40.831 23.802-2.348-1.455-5.921-4.938-7.601-7.337-10.692-15.274-18.071-32.576-27.88-48.439a655 655 0 0 0-77.981-102.612c-6.403-6.783-14.898-12.442-20.436-19.92-1.445-1.952-3.089-5.019-2.482-7.555.46-1.925 1.645-3.282 3.332-4.278 6.23-3.679 17.4 2.285 23.367 4.94 32.258 14.355 62.068 35.903 87.772 59.944 4.929 4.61 9.931 9.35 14.467 14.35 8.252 9.095 22.444 30.318 34.279 33.23 3.898.96 7.788-.099 11.112-2.221 16.546-10.562 18.037-40.761 22.167-58.359 1.497-6.377 4.238-15.391 10.263-18.882 2.717-1.575 5.634-1.58 8.566-.61 32.694 10.811 60.155 98.336 72.16 129.44a447 447 0 0 0 16.45 36.874c4.102-9.249 10.745-20.994 15.505-30.268l31.73-62.086 24.137-47.668c9.783-19.518 28.901-66.729 58.037-58.746 8.579 2.35 19.107 13.444 23.984 20.78 13.719 20.61 22.672 43.883 33.588 65.986 14.223 28.801 28.609 57.549 43.231 86.152 4.514 8.831 8.751 17.802 13.558 26.476 23.685-58.68 42.174-128.986 89.526-173.18 14.301-13.347 40.152-30.575 61.02-30.951 2.331-.042 5.259 1.119 6.782 2.968 1.995 2.421 2.552 5.738 2.213 8.819-.65 5.895-2.797 12.09-4.448 17.824-3.241 11.253-6.039 22.372-6.758 34.133-.191 3.108.079 7.008 2.383 9.343 3.673 3.723 13.977-6.062 17.285-8.966 9.098-7.987 19.472-16.17 29.57-22.961 21.516-14.47 70.217-41.108 96.122-43.847" style="fill:rgb(102, 96, 132);stroke:none;color:rgb(251, 251, 254);stroke-width:1px;stroke-linecap:butt;stroke-linejoin:miter;opacity:1;font-family:&quot;Anthropic Sans&quot;, -apple-system, BlinkMacSystemFont, &quot;Segoe UI&quot;, sans-serif;font-size:16px;font-weight:400;text-anchor:start;dominant-baseline:auto"/>
  <path fill="#9387c4" d="M627.892 150.93c.468.039.629.032 1.131.186 5.959 1.826 11.076 16.927 14.725 22.471 7.854 11.931 20.36 19.701 28.012 31.713 4.966 7.797 7.568 16.809 10.611 25.461 3.691 10.494 7.412 20.937 12.348 30.922 7.985 16.154 37.013 60.559 52.787 65.45 15.698 4.868 21.641-16.056 33.191-22.062 2.764-1.437 5.892-2.09 8.913-1.089 3.038 1.006 5.682 3.371 7.62 5.856 3.681 4.722 6.273 10.569 9.057 15.856a1056 1056 0 0 0 12.608 23.477c19.868 35.782 39.971 63.664 67.335 94.544a521 521 0 0 0 21.464 22.392c5.846 5.674 20.777 16.984 24.054 23.513.912 1.817 1.484 4.06.589 6.003-.769 1.668-2.396 2.715-4.037 3.389-8.961 3.686-23.117-5.095-31.111-9.117-26.627-13.397-50.655-27.48-73.65-46.648-10.438-8.701-19.896-18.234-29.241-28.085-8.291-8.739-18.274-24.939-29.403-29.591-3.77-1.576-7.772-1.55-11.546.02-12.447 5.176-19.865 29.885-22.597 41.776-2.142 9.322-3.045 19.596-6.943 28.393-1.742 3.929-4.421 7.912-8.642 9.422-3.766 1.346-7.749.353-11.213-1.378-33.317-16.65-62.245-114.62-73.615-149.904-5.158 10.731-10.944 20.922-16.511 31.438l-29.223 55.446-22.821 43.313c-8.046 15.082-21.199 41.245-35.974 49.707-29.977 17.171-52.103-29.411-63.463-50.136l-18.533-33.676-47.744-86.928-8.853 23.06c-17.53 47.27-40.899 100.435-80.7 133.05-15.766 12.411-34.834 25.388-55.889 23.345-5.556-.451-8.38-5.839-7.73-11.077 1.719-13.857 7.23-27.016 9.315-40.911 2.392-9.061 4.196-34.296-11.933-19.214-33.442 31.268-73.031 54.205-117.181 66.599-6.744 1.5-20.648 5.905-27.258 4.448-23.387-5.153 8.179-20.477 12.46-23.159 8.6-5.39 16.829-11.35 24.632-17.841a371.5 371.5 0 0 0 78.79-87.362 463 463 0 0 0 17.893-30.055c11.424-20.859 17.188-39.269 35.964-8.342 4.317 7.11 15.799 29.203 25.565 16.149 9.159-12.244 16.585-26.993 23.386-40.693l33.605-69.189c1.98-4.114 3.912-8.255 5.899-12.361 4.613-9.228 8.781-19.252 14.305-27.977 7.954-12.564 22.511-31.194 38.302-17.353 8.027 7.034 12.062 15.774 17.039 24.925 6.326 11.63 11.983 23.498 17.995 35.25 11.841 23.024 24 45.884 36.473 68.572 9.847 18.292 22.242 41.984 33.93 58.76 3.199-5.301 6.902-12.666 9.867-18.209a4379 4379 0 0 0 21.84-41.763c11.205-21.558 23.077-43.83 33.761-65.574a1708 1708 0 0 0 33.728-72.944c3.998-8.987 7.009-18.575 16.617-22.268" style="fill:rgb(147, 135, 196);stroke:none;color:rgb(251, 251, 254);stroke-width:1px;stroke-linecap:butt;stroke-linejoin:miter;opacity:1;font-family:&quot;Anthropic Sans&quot;, -apple-system, BlinkMacSystemFont, &quot;Segoe UI&quot;, sans-serif;font-size:16px;font-weight:400;text-anchor:start;dominant-baseline:auto"/>
  <!-- Purple ring on top, touches all 4 edges, thick enough to be visible -->
  <circle cx="512" cy="512" r="492" fill="none" stroke="#9387c4" stroke-width="40" style="fill:none;stroke:rgb(147, 135, 196);color:rgb(251, 251, 254);stroke-width:40px;stroke-linecap:butt;stroke-linejoin:miter;opacity:1;font-family:&quot;Anthropic Sans&quot;, -apple-system, BlinkMacSystemFont, &quot;Segoe UI&quot;, sans-serif;font-size:16px;font-weight:400;text-anchor:start;dominant-baseline:auto"/>
</svg>